PathFileType	4	(X/Y/Z)	1_Data\scaling.trc
DataRate	CameraRate	NumFrames	NumMarkers	Units	OrigDataRate	OrigDataStartFrame	OrigNumFrames
120.000000	120.000000	4	71	mm	120.000000	348	697
Frame#	Time	Sternum			Neck			RShoulder			LShoulder			Xiphoid			Thoracic			RAsis			LAsis			RPsis			LPsis			RElbow			RElbowMedial			RShoulderAnterior			RShoulderPosterior			RWrist			RRadius			RUlna			LElbow			LElbowMedial			LShoulderAnterior			LShoulderPosterior			LWrist			LUlna			LRadius			LThighSuperior			LThighInferior			LThighLateral			LKneeLateral			LKneeMedial			LPatella			LShankSuperior			LShankInferior			LShankLateral			LAnkleLateral			LAnkleMedial			RThighSuperior			RThighInferior			RThighLateral			RKneeLateral			RPatella			RShankSuperior			RShankInferior			RShankLateral			RAnkleLateral			RankleMedial			RHeel			RToe			RMidfootMedial			RMidfootLateral			RHindfoot			RMidfootSuperior			RToeMedial			RToeLateral			LHeel			LToe			LMidfootMedial			LMidfootLateral			LHindfoot			LMidfootSuperior			LToeMedial			LToeLateral			RKneeMedial			Lumbar			Oglobal			Sacral			Xglobal			Yglobal			Zglobal			*68			*69			*70			
		X1	Y1	Z1	X2	Y2	Z2	X3	Y3	Z3	X4	Y4	Z4	X5	Y5	Z5	X6	Y6	Z6	X7	Y7	Z7	X8	Y8	Z8	X9	Y9	Z9	X10	Y10	Z10	X11	Y11	Z11	X12	Y12	Z12	X13	Y13	Z13	X14	Y14	Z14	X15	Y15	Z15	X16	Y16	Z16	X17	Y17	Z17	X18	Y18	Z18	X19	Y19	Z19	X20	Y20	Z20	X21	Y21	Z21	X22	Y22	Z22	X23	Y23	Z23	X24	Y24	Z24	X25	Y25	Z25	X26	Y26	Z26	X27	Y27	Z27	X28	Y28	Z28	X29	Y29	Z29	X30	Y30	Z30	X31	Y31	Z31	X32	Y32	Z32	X33	Y33	Z33	X34	Y34	Z34	X35	Y35	Z35	X36	Y36	Z36	X37	Y37	Z37	X38	Y38	Z38	X39	Y39	Z39	X40	Y40	Z40	X41	Y41	Z41	X42	Y42	Z42	X43	Y43	Z43	X44	Y44	Z44	X45	Y45	Z45	X46	Y46	Z46	X47	Y47	Z47	X48	Y48	Z48	X49	Y49	Z49	X50	Y50	Z50	X51	Y51	Z51	X52	Y52	Z52	X53	Y53	Z53	X54	Y54	Z54	X55	Y55	Z55	X56	Y56	Z56	X57	Y57	Z57	X58	Y58	Z58	X59	Y59	Z59	X60	Y60	Z60	X61	Y61	Z61	X62	Y62	Z62	X63	Y63	Z63	X64	Y64	Z64	X65	Y65	Z65	X66	Y66	Z66	X67	Y67	Z67	X68	Y68	Z68	X69	Y69	Z69	X70	Y70	Z70	X71	Y71	Z71	

349	2.9	532.7761840820312	1456.912719726562	-465.8348083496093	377.8988952636719	1572.227661132812	-455.2741394042968	428.3511962890625	1554.012329101562	-300.3317565917968	404.842041015625	1554.522827148438	-601.1274414062499	559.6221923828125	1303.42431640625	-458.1651611328124	289.9444580078125	1351.7255859375	-451.9130249023437	487.7944030761719	1039.600708007812	-323.9772033691406	500.897216796875	1045.350708007812	-604.7181396484374	302.1141662597656	1067.327758789062	-414.0286865234374	300.9878845214844	1066.986206054688	-516.3959960937499	519.819091796875	1296.372314453125	-101.4592666625976	551.2578735351562	1239.37548828125	-175.2349090576171	482.8397521972656	1497.22607421875	-309.8253479003905	369.5108337402344	1501.416381835938	-282.1666259765624	785.9215087890625	1332.778686523438	-94.10205841064445	799.7314453125	1308.045532226562	-140.5039672851562	787.349609375	1305.32568359375	-57.25208663940422	529.5447387695312	1297.921142578125	-793.8097534179686	539.8472900390625	1239.312744140625	-721.7819824218749	466.7974548339844	1506.584594726562	-618.5204467773436	355.9259033203125	1495.769287109375	-631.6927490234374	797.2881469726562	1325.244018554688	-775.8426513671874	791.3876342773438	1289.752563476562	-807.3612670898436	804.133056640625	1303.994750976562	-733.2224121093749	443.1083374023438	873.9468383789062	-659.5252685546875	469.1014404296875	643.076904296875	-641.0428466796875	543.1097412109375	747.7177124023438	-587.9810791015625	473.9698791503906	558.1397705078125	-643.6698608398438	466.9570922851562	565.1065063476562	-501.6527099609374	552.2021484375	554.615966796875	-578.6041259765625	465.1974792480469	405.8682250976563	-661.582275390625	429.6497497558594	204.9398193359375	-643.4640502929688	488.0325317382812	294.4683227539063	-602.6687622070312	410.5431213378906	124.4203567504883	-643.6177978515625	439.6437377929688	125.3102188110352	-558.1734619140625	424.6114196777344	846.4534301757812	-287.6149597167968	440.5668029785156	610.3588256835938	-311.0375671386718	528.7962036132812	764.5460205078125	-340.5260009765624	433.1286315917969	545.3827514648438	-310.0261535644531	526.6021118164062	540.2716674804688	-350.9782104492187	420.3746948242188	448.6467590332031	-304.31689453125	413.7698669433594	194.3945770263672	-336.0051574707031	479.8961791992188	318.6865539550781	-368.1317138671875	404.91796875	119.981201171875	-339.4393005371094	436.8305969238281	137.4490966796875	-425.8301086425781	331.8694458007812	79.33428955078128	-394.7926635742188	646.1922607421875	62.92950820922854	-351.6317443847656	552.5533447265625	49.06281661987308	-414.1708374023438	541.0858154296875	43.68840026855471	-295.5091552734375	486.4024353027344	43.65995407104494	-309.830810546875	514.9810180664062	110.3629684448242	-365.3688049316406	597.8675537109375	50.25156402587893	-403.9698791503906	588.9056396484375	48.17945861816408	-301.5081481933594	341.3668518066406	83.26545715332036	-590.9085083007812	648.7705078125	74.03357696533207	-642.7762451171875	555.5178833007812	50.74702072143558	-578.48046875	541.8255615234375	47.16771316528325	-694.8626098632812	487.6803588867188	46.47532272338871	-680.0585327148438	523.4556884765625	112.6459655761719	-625.6779174804688	597.2938842773438	51.59038543701175	-586.8380126953125	586.078125	56.91230773925786	-690.1409301757812	476.7245788574219	543.2650756835938	-446.3721618652343	313.4105224609375	1169.306396484375	-460.4910278320312	0	0	0	301.551025390625	1067.156982421875	-465.2123413085937	200	0	0	0	1.224646799147353e-14	-200	0	200	1.224646799147353e-14	nan	nan	nan	nan	nan	nan	nan	nan	nan	
350	2.908333333333333	532.72412109375	1456.931762695312	-465.8424072265624	377.8334655761719	1572.196899414062	-455.340850830078	428.2624206542969	1554.046142578125	-300.3683471679686	404.6947937011719	1554.5751953125	-601.1171264648436	559.5949096679688	1303.441284179688	-458.1755371093749	289.8949890136719	1351.696899414062	-451.9117431640624	487.7640991210938	1039.607299804688	-324.0001525878906	500.9071655273438	1045.343017578125	-604.7025756835936	302.1069946289062	1067.305786132812	-414.1018371582031	300.9525146484375	1066.971435546875	-516.4012451171874	519.76318359375	1296.431884765625	-101.5485076904296	551.2452392578125	1239.42919921875	-175.205337524414	482.782470703125	1497.220581054688	-309.8441467285155	369.4770812988281	1501.476806640625	-282.2037048339843	785.8746948242188	1332.870483398438	-94.10080718994132	799.7453002929688	1308.12109375	-140.4198455810546	787.2714233398438	1305.351196289062	-57.41472625732414	529.5093383789062	1297.885131835938	-793.8192749023436	539.8047485351562	1239.246704101562	-721.8901977539061	466.7113037109375	1506.571166992188	-618.5020141601561	355.9015502929688	1495.7685546875	-631.7051391601561	797.2130126953125	1325.2607421875	-775.9277954101561	791.2061157226562	1289.738403320312	-807.3151855468749	804.083740234375	1303.99560546875	-733.2174682617186	443.1519165039062	873.9562377929688	-659.51416015625	469.1771240234375	643.0875854492188	-641.0862426757812	543.1179809570312	747.7164306640625	-587.9539794921875	473.9542236328125	558.1236572265625	-643.6068725585938	466.9488220214844	565.12646484375	-501.5830078124999	552.1699829101562	554.64306640625	-578.5372924804688	465.2055358886719	405.8475036621094	-661.5671997070312	429.631591796875	204.9134979248047	-643.4476928710938	488.0398864746094	294.4671936035157	-602.6630249023438	410.6593322753906	124.4049682617188	-643.650390625	439.6459350585938	125.3382110595703	-558.1386108398438	424.5706481933594	846.40576171875	-287.6296691894531	440.5144653320312	610.35498046875	-311.0227355957031	528.7796020507812	764.5451049804688	-340.4800415039062	433.1115112304688	545.380126953125	-310.0184326171874	526.5982055664062	540.2677612304688	-350.9851684570312	420.3882141113281	448.6254272460938	-304.3116760253906	413.7555847167969	194.4084625244141	-335.9748229980469	479.8838500976562	318.6763610839844	-368.0986938476562	404.9147644042969	119.9660339355469	-339.4538879394531	436.8236999511719	137.4371337890625	-425.8349304199219	331.9269714355469	79.62547302246097	-394.4907836914062	646.1918334960938	62.93377304077151	-351.628662109375	552.5423583984375	49.05789184570315	-414.1864013671875	541.08642578125	43.40002441406252	-295.63818359375	486.4353332519531	43.69906997680666	-309.7957763671875	514.4591674804688	110.8185806274414	-364.5523681640625	597.8740844726562	50.25305557250979	-403.9443054199219	588.8297729492188	48.22536849975588	-301.6112365722656	341.350830078125	83.34397888183598	-591.023193359375	648.7794799804688	74.03019714355473	-642.7647705078125	555.5122680664062	50.76779937744144	-578.4669799804688	541.8080444335938	47.16342544555668	-694.8682250976562	487.6914672851562	46.49385833740239	-680.1004638671875	523.4642944335938	112.6983337402344	-625.5941162109375	597.307861328125	51.56718063354496	-586.84619140625	586.0918579101562	56.91407012939457	-690.1425170898438	476.7220764160156	543.2607421875	-446.3803710937499	313.3872375488281	1169.2880859375	-460.5288391113281	0	0	0	301.5297546386719	1067.138671875	-465.2515258789062	200	0	0	0	1.224646799147353e-14	-200	0	200	1.224646799147353e-14	nan	nan	nan	nan	nan	nan	nan	nan	nan	
351	2.916666666666667	532.7063598632812	1456.949951171875	-465.8720703124999	377.7417602539062	1572.205932617188	-455.4229125976561	428.2161865234375	1554.0595703125	-300.4291992187499	404.7320556640625	1554.493041992188	-601.2243652343749	559.58056640625	1303.436401367188	-458.2259216308593	289.8631896972656	1351.693359375	-451.9401855468749	487.7291564941406	1039.644409179688	-323.9619445800781	500.9079284667969	1045.333618164062	-604.6905517578124	302.0596008300781	1067.30712890625	-414.0593566894531	300.9572143554688	1066.944213867188	-516.4095458984374	519.7461547851562	1296.458984375	-101.5037002563476	551.2300415039062	1239.527954101562	-175.225845336914	482.7342834472656	1497.227661132812	-309.914581298828	369.3919372558594	1501.439697265625	-282.223907470703	785.8475341796875	1333.02099609375	-93.9761428833007	799.4878540039062	1308.252807617188	-140.3295288085937	787.2393798828125	1305.451904296875	-57.47303771972648	529.4573974609375	1297.852905273438	-793.8610229492186	539.795654296875	1239.276000976562	-721.7928466796874	466.7323913574219	1506.54296875	-618.6146240234374	355.9054565429688	1495.751953125	-631.7359008789061	797.1987915039062	1325.191528320312	-775.9320678710936	791.167724609375	1289.707397460938	-807.3619995117186	804.0405883789062	1303.971557617188	-733.2987670898436	443.1567687988281	873.96240234375	-659.5142822265625	469.2566223144531	643.0945434570312	-641.0909423828125	543.1202392578125	747.7200927734375	-587.9459838867188	474.0330810546875	558.1107788085938	-643.618896484375	467.0602111816406	565.1076049804688	-501.5887145996093	552.1982421875	554.648193359375	-578.5256958007812	465.2607421875	405.8748168945313	-661.5592651367188	429.6744384765625	204.9466094970703	-643.4569091796875	488.0544128417969	294.4790344238282	-602.6635131835938	410.7070007324219	124.4014739990235	-643.6702880859375	439.6425170898438	125.2985000610352	-558.1448364257812	424.5373840332031	846.4136352539062	-287.6004638671874	440.5073547363281	610.3558349609375	-310.9982299804687	528.7855834960938	764.5322265625	-340.4656982421874	433.1243286132812	545.3795166015625	-309.9971618652343	526.6212768554688	540.2803344726562	-350.9479064941406	420.3722229003906	448.6270751953125	-304.293701171875	413.7755126953125	194.3954772949219	-335.9806518554688	479.9043579101562	318.6592102050781	-368.1217651367188	404.9198608398438	119.9951629638672	-339.4407653808594	436.8541870117188	137.4435272216797	-425.8057556152344	331.979248046875	79.50663757324222	-394.4175109863281	646.192626953125	62.92520141601565	-351.6439514160156	552.5534057617188	49.04958343505862	-414.167724609375	541.094482421875	43.66925430297854	-295.5110778808594	486.4067687988281	43.63747406005862	-309.8287658691406	514.374267578125	110.9123458862305	-364.4457397460938	597.8829956054688	50.24054336547854	-403.9751892089844	588.7879638671875	48.49345397949221	-301.0792846679688	341.3690795898438	83.34185028076176	-591.0439453125	648.7817993164062	74.02123260498051	-642.7529907226562	555.5197143554688	50.74413681030277	-578.482421875	541.8268432617188	47.1717910766602	-694.8509521484375	487.72021484375	46.50685882568364	-680.0639038085938	523.472900390625	112.7125244140625	-625.5812377929688	597.2756958007812	51.54678344726566	-586.810302734375	586.0992431640625	56.92348098754887	-690.1121215820312	476.7466735839844	543.2728271484375	-446.3442382812499	313.3524169921875	1169.278076171875	-460.5484924316406	0	0	0	301.5084228515625	1067.125732421875	-465.2344360351562	200	0	0	0	1.224646799147353e-14	-200	0	200	1.224646799147353e-14	nan	nan	nan	nan	nan	nan	nan	nan	nan	
352	2.925	532.65869140625	1456.898681640625	-466.0239868164061	377.6611938476562	1572.219116210938	-455.4613647460936	428.1506958007812	1554.080078125	-300.4854125976561	404.6784362792969	1554.470336914062	-601.3074340820311	559.5692749023438	1303.448974609375	-458.1975708007812	289.8079528808594	1351.671020507812	-451.9714355468749	487.7166137695312	1039.678344726562	-323.9700927734374	500.9184265136719	1045.331665039062	-604.6534423828124	302.0470275878906	1067.280639648438	-414.0427246093749	300.9586181640625	1066.943603515625	-516.4100341796874	519.7006225585938	1296.50439453125	-101.5165863037109	551.2073364257812	1239.589721679688	-175.2408447265624	482.6838073730469	1497.272094726562	-309.995635986328	369.3309326171875	1501.449340820312	-282.2670898437499	785.7542724609375	1333.048706054688	-94.13363647460929	799.49267578125	1308.253295898438	-140.3142852783202	787.2054443359375	1305.560302734375	-57.44315719604484	529.4364013671875	1297.810913085938	-793.9035644531249	539.7265014648438	1239.241455078125	-721.8274536132811	466.7297058105469	1506.5302734375	-618.7371826171874	355.8818359375	1495.720947265625	-631.7536621093749	797.1531372070312	1325.166748046875	-775.9974365234374	791.2427978515625	1289.641845703125	-807.4993896484374	803.976806640625	1303.978759765625	-733.3549804687499	443.1609191894531	873.9566650390625	-659.4876708984375	469.2667236328125	643.0875244140625	-641.0726928710938	543.2277221679688	747.7485961914062	-587.9019775390625	474.0909729003906	558.14697265625	-643.6506958007812	467.1345520019531	565.0740356445312	-501.6140136718749	552.2242431640625	554.63818359375	-578.4655151367188	465.2736206054688	405.8471984863282	-661.5254516601562	429.6805419921875	204.9525909423828	-643.4630126953125	488.0839538574219	294.4669799804688	-602.6537475585938	410.7278747558594	124.3995056152344	-643.6764526367188	439.648193359375	125.3114624023438	-558.1640014648438	424.5516052246094	846.44677734375	-287.5510864257812	440.3851623535156	610.3492431640625	-311.0320129394531	528.7513427734375	764.5567626953125	-340.4283752441406	433.1101989746094	545.3443603515625	-310.0013427734374	526.5924072265625	540.2788696289062	-350.9204711914062	420.3684387207031	448.6232604980469	-304.2904968261719	413.7537231445312	194.3963775634766	-335.9782104492188	479.9033813476562	318.6675720214844	-368.1182861328125	404.8966064453125	119.9800109863281	-339.4424743652344	436.8291931152344	137.4462280273438	-425.8243713378906	331.9348754882812	79.62891387939456	-394.4715270996094	646.1976928710938	62.92918014526369	-351.6380004882812	552.921630859375	49.44361877441409	-414.7343139648438	541.1079711914062	43.49918365478518	-295.5776977539062	486.4136352539062	43.64316177368166	-309.8298950195312	514.4488525390625	110.8969802856446	-364.5113220214844	597.8711547851562	50.23736572265627	-403.9507141113281	588.8989868164062	48.20103454589846	-301.4721069335938	341.4196166992188	83.21399688720707	-590.91455078125	648.7841186523438	74.0091934204102	-642.74462890625	555.4988403320312	50.77302551269535	-578.4406127929688	541.8282470703125	47.17227172851567	-694.8504028320312	487.7286987304688	46.50571441650395	-680.0936279296875	523.474365234375	112.7170944213868	-625.5736694335938	597.3052978515625	51.56356430053714	-586.8740844726562	586.1028442382812	56.93894195556645	-690.136474609375	476.7192077636719	543.2710571289062	-446.3180236816406	313.3318786621094	1169.267211914062	-460.5674743652343	0	0	0	301.5028076171875	1067.112060546875	-465.2263793945312	200	0	0	0	1.224646799147353e-14	-200	0	200	1.224646799147353e-14	nan	nan	nan	nan	nan	nan	nan	nan	nan	
